<mxfile host="app.diagrams.net" agent="Mozilla/5.0 (Windows NT 10.0; Win64; x64) AppleWebKit/537.36 (KHTML, like Gecko) Chrome/135.0.0.0 Safari/537.36 Edg/135.0.0.0" version="26.2.14">
  <diagram name="第 1 页" id="cTBDvRYppaPFrAyPl45t">
    <mxGraphModel dx="1721" dy="1104" grid="0" gridSize="10" guides="1" tooltips="1" connect="1" arrows="1" fold="1" page="1" pageScale="1" pageWidth="1390" pageHeight="980" background="light-dark(#FFFFFF,#FFFFFF)" math="0" shadow="0">
      <root>
        <mxCell id="0" />
        <mxCell id="1" parent="0" />
        <mxCell id="R6qwXmnEgdx1axwrq7qx-6" style="edgeStyle=orthogonalEdgeStyle;rounded=0;orthogonalLoop=1;jettySize=auto;html=1;exitX=1;exitY=0.5;exitDx=0;exitDy=0;entryX=0;entryY=0.5;entryDx=0;entryDy=0;labelBackgroundColor=none;strokeColor=#23445D;fontColor=default;fontStyle=1;fontSize=16;" edge="1" parent="1" source="R6qwXmnEgdx1axwrq7qx-2" target="R6qwXmnEgdx1axwrq7qx-4">
          <mxGeometry relative="1" as="geometry" />
        </mxCell>
        <mxCell id="R6qwXmnEgdx1axwrq7qx-2" value="用户问题" style="rounded=0;whiteSpace=wrap;html=1;labelBackgroundColor=none;fillColor=#182E3E;strokeColor=#FFFFFF;fontColor=#FFFFFF;fontStyle=1;fontSize=16;" vertex="1" parent="1">
          <mxGeometry x="20" y="440" width="100" height="40" as="geometry" />
        </mxCell>
        <mxCell id="R6qwXmnEgdx1axwrq7qx-11" style="edgeStyle=orthogonalEdgeStyle;rounded=0;orthogonalLoop=1;jettySize=auto;html=1;exitX=1;exitY=0.5;exitDx=0;exitDy=0;entryX=0;entryY=0.5;entryDx=0;entryDy=0;labelBackgroundColor=none;strokeColor=#23445D;fontColor=default;fontStyle=1;fontSize=16;" edge="1" parent="1" source="R6qwXmnEgdx1axwrq7qx-4" target="R6qwXmnEgdx1axwrq7qx-8">
          <mxGeometry relative="1" as="geometry" />
        </mxCell>
        <mxCell id="R6qwXmnEgdx1axwrq7qx-13" style="edgeStyle=orthogonalEdgeStyle;rounded=0;orthogonalLoop=1;jettySize=auto;html=1;exitX=1;exitY=0.5;exitDx=0;exitDy=0;entryX=0;entryY=0.5;entryDx=0;entryDy=0;labelBackgroundColor=none;strokeColor=#23445D;fontColor=default;fontStyle=1;fontSize=16;" edge="1" parent="1" source="R6qwXmnEgdx1axwrq7qx-4" target="R6qwXmnEgdx1axwrq7qx-10">
          <mxGeometry relative="1" as="geometry" />
        </mxCell>
        <mxCell id="R6qwXmnEgdx1axwrq7qx-4" value="问题分析" style="rounded=0;whiteSpace=wrap;html=1;labelBackgroundColor=none;fillColor=#182E3E;strokeColor=#FFFFFF;fontColor=#FFFFFF;fontStyle=1;fontSize=16;" vertex="1" parent="1">
          <mxGeometry x="170" y="440" width="100" height="40" as="geometry" />
        </mxCell>
        <mxCell id="R6qwXmnEgdx1axwrq7qx-8" value="关键词提取" style="rounded=0;whiteSpace=wrap;html=1;labelBackgroundColor=none;fillColor=#182E3E;strokeColor=#FFFFFF;fontColor=#FFFFFF;fontStyle=1;fontSize=16;" vertex="1" parent="1">
          <mxGeometry x="330" y="400" width="100" height="40" as="geometry" />
        </mxCell>
        <mxCell id="R6qwXmnEgdx1axwrq7qx-17" style="edgeStyle=orthogonalEdgeStyle;rounded=0;orthogonalLoop=1;jettySize=auto;html=1;exitX=1;exitY=0.5;exitDx=0;exitDy=0;entryX=0;entryY=0.5;entryDx=0;entryDy=0;labelBackgroundColor=none;strokeColor=#23445D;fontColor=default;fontStyle=1;fontSize=16;" edge="1" parent="1" source="R6qwXmnEgdx1axwrq7qx-10" target="R6qwXmnEgdx1axwrq7qx-14">
          <mxGeometry relative="1" as="geometry" />
        </mxCell>
        <mxCell id="R6qwXmnEgdx1axwrq7qx-18" style="edgeStyle=orthogonalEdgeStyle;rounded=0;orthogonalLoop=1;jettySize=auto;html=1;exitX=1;exitY=0.5;exitDx=0;exitDy=0;entryX=0;entryY=0.5;entryDx=0;entryDy=0;labelBackgroundColor=none;strokeColor=#23445D;fontColor=default;fontStyle=1;fontSize=16;" edge="1" parent="1" source="R6qwXmnEgdx1axwrq7qx-10" target="R6qwXmnEgdx1axwrq7qx-15">
          <mxGeometry relative="1" as="geometry" />
        </mxCell>
        <mxCell id="R6qwXmnEgdx1axwrq7qx-19" style="edgeStyle=orthogonalEdgeStyle;rounded=0;orthogonalLoop=1;jettySize=auto;html=1;exitX=1;exitY=0.5;exitDx=0;exitDy=0;entryX=0;entryY=0.5;entryDx=0;entryDy=0;labelBackgroundColor=none;strokeColor=#23445D;fontColor=default;fontStyle=1;fontSize=16;" edge="1" parent="1" source="R6qwXmnEgdx1axwrq7qx-10" target="R6qwXmnEgdx1axwrq7qx-16">
          <mxGeometry relative="1" as="geometry" />
        </mxCell>
        <mxCell id="R6qwXmnEgdx1axwrq7qx-10" value="API调用生成答案" style="rounded=0;whiteSpace=wrap;html=1;labelBackgroundColor=none;fillColor=#182E3E;strokeColor=#FFFFFF;fontColor=#FFFFFF;fontStyle=1;fontSize=16;" vertex="1" parent="1">
          <mxGeometry x="330" y="470" width="130" height="40" as="geometry" />
        </mxCell>
        <mxCell id="R6qwXmnEgdx1axwrq7qx-26" style="edgeStyle=orthogonalEdgeStyle;rounded=0;orthogonalLoop=1;jettySize=auto;html=1;exitX=1;exitY=0.5;exitDx=0;exitDy=0;entryX=0;entryY=0.5;entryDx=0;entryDy=0;labelBackgroundColor=none;strokeColor=#23445D;fontColor=default;fontStyle=1;fontSize=16;" edge="1" parent="1" source="R6qwXmnEgdx1axwrq7qx-14" target="R6qwXmnEgdx1axwrq7qx-22">
          <mxGeometry relative="1" as="geometry" />
        </mxCell>
        <mxCell id="R6qwXmnEgdx1axwrq7qx-14" value="检查知识库冲突" style="rounded=0;whiteSpace=wrap;html=1;labelBackgroundColor=none;fillColor=#182E3E;strokeColor=#FFFFFF;fontColor=#FFFFFF;fontStyle=1;fontSize=16;" vertex="1" parent="1">
          <mxGeometry x="501" y="420" width="122" height="40" as="geometry" />
        </mxCell>
        <mxCell id="R6qwXmnEgdx1axwrq7qx-29" style="edgeStyle=orthogonalEdgeStyle;rounded=0;orthogonalLoop=1;jettySize=auto;html=1;exitX=1;exitY=0.5;exitDx=0;exitDy=0;entryX=0;entryY=0.5;entryDx=0;entryDy=0;labelBackgroundColor=none;strokeColor=#23445D;fontColor=default;fontStyle=1;fontSize=16;" edge="1" parent="1" source="R6qwXmnEgdx1axwrq7qx-15" target="R6qwXmnEgdx1axwrq7qx-22">
          <mxGeometry relative="1" as="geometry" />
        </mxCell>
        <mxCell id="R6qwXmnEgdx1axwrq7qx-15" value="检查答案事实性" style="rounded=0;whiteSpace=wrap;html=1;labelBackgroundColor=none;fillColor=#182E3E;strokeColor=#FFFFFF;fontColor=#FFFFFF;fontStyle=1;fontSize=16;" vertex="1" parent="1">
          <mxGeometry x="501" y="470" width="122" height="40" as="geometry" />
        </mxCell>
        <mxCell id="R6qwXmnEgdx1axwrq7qx-21" style="edgeStyle=orthogonalEdgeStyle;rounded=0;orthogonalLoop=1;jettySize=auto;html=1;exitX=1;exitY=0.5;exitDx=0;exitDy=0;entryX=0;entryY=0.5;entryDx=0;entryDy=0;labelBackgroundColor=none;strokeColor=#23445D;fontColor=default;fontStyle=1;fontSize=16;" edge="1" parent="1" source="R6qwXmnEgdx1axwrq7qx-16" target="R6qwXmnEgdx1axwrq7qx-20">
          <mxGeometry relative="1" as="geometry" />
        </mxCell>
        <mxCell id="R6qwXmnEgdx1axwrq7qx-16" value="反向生成问题" style="rounded=0;whiteSpace=wrap;html=1;labelBackgroundColor=none;fillColor=#182E3E;strokeColor=#FFFFFF;fontColor=#FFFFFF;fontStyle=1;fontSize=16;" vertex="1" parent="1">
          <mxGeometry x="501" y="520" width="123" height="40" as="geometry" />
        </mxCell>
        <mxCell id="R6qwXmnEgdx1axwrq7qx-56" style="edgeStyle=orthogonalEdgeStyle;rounded=0;orthogonalLoop=1;jettySize=auto;html=1;exitX=1;exitY=0.5;exitDx=0;exitDy=0;entryX=0;entryY=0.5;entryDx=0;entryDy=0;strokeColor=#23445D;" edge="1" parent="1" source="R6qwXmnEgdx1axwrq7qx-20" target="R6qwXmnEgdx1axwrq7qx-22">
          <mxGeometry relative="1" as="geometry" />
        </mxCell>
        <mxCell id="R6qwXmnEgdx1axwrq7qx-20" value="计算相似度" style="rounded=0;whiteSpace=wrap;html=1;labelBackgroundColor=none;fillColor=#182E3E;strokeColor=#FFFFFF;fontColor=#FFFFFF;fontStyle=1;fontSize=16;" vertex="1" parent="1">
          <mxGeometry x="649" y="520" width="92" height="40" as="geometry" />
        </mxCell>
        <mxCell id="R6qwXmnEgdx1axwrq7qx-43" style="edgeStyle=orthogonalEdgeStyle;rounded=0;orthogonalLoop=1;jettySize=auto;html=1;exitX=1;exitY=0.5;exitDx=0;exitDy=0;entryX=0;entryY=0.5;entryDx=0;entryDy=0;labelBackgroundColor=none;strokeColor=#23445D;fontColor=default;fontStyle=1;fontSize=16;" edge="1" parent="1" source="R6qwXmnEgdx1axwrq7qx-22" target="R6qwXmnEgdx1axwrq7qx-38">
          <mxGeometry relative="1" as="geometry" />
        </mxCell>
        <mxCell id="R6qwXmnEgdx1axwrq7qx-44" style="edgeStyle=orthogonalEdgeStyle;rounded=0;orthogonalLoop=1;jettySize=auto;html=1;exitX=1;exitY=0.5;exitDx=0;exitDy=0;entryX=0;entryY=0.5;entryDx=0;entryDy=0;labelBackgroundColor=none;strokeColor=#23445D;fontColor=default;fontStyle=1;fontSize=16;" edge="1" parent="1" source="R6qwXmnEgdx1axwrq7qx-22" target="R6qwXmnEgdx1axwrq7qx-39">
          <mxGeometry relative="1" as="geometry" />
        </mxCell>
        <mxCell id="R6qwXmnEgdx1axwrq7qx-45" style="edgeStyle=orthogonalEdgeStyle;rounded=0;orthogonalLoop=1;jettySize=auto;html=1;exitX=1;exitY=0.5;exitDx=0;exitDy=0;entryX=0;entryY=0.5;entryDx=0;entryDy=0;labelBackgroundColor=none;strokeColor=#23445D;fontColor=default;fontStyle=1;fontSize=16;" edge="1" parent="1" source="R6qwXmnEgdx1axwrq7qx-22" target="R6qwXmnEgdx1axwrq7qx-40">
          <mxGeometry relative="1" as="geometry" />
        </mxCell>
        <mxCell id="R6qwXmnEgdx1axwrq7qx-46" style="edgeStyle=orthogonalEdgeStyle;rounded=0;orthogonalLoop=1;jettySize=auto;html=1;exitX=1;exitY=0.5;exitDx=0;exitDy=0;entryX=0;entryY=0.5;entryDx=0;entryDy=0;labelBackgroundColor=none;strokeColor=#23445D;fontColor=default;fontStyle=1;fontSize=16;" edge="1" parent="1" source="R6qwXmnEgdx1axwrq7qx-22" target="R6qwXmnEgdx1axwrq7qx-41">
          <mxGeometry relative="1" as="geometry" />
        </mxCell>
        <mxCell id="R6qwXmnEgdx1axwrq7qx-22" value="幻觉检测集成" style="rounded=0;whiteSpace=wrap;html=1;labelBackgroundColor=none;fillColor=#182E3E;strokeColor=#FFFFFF;fontColor=#FFFFFF;fontStyle=1;fontSize=16;" vertex="1" parent="1">
          <mxGeometry x="783" y="470" width="115" height="40" as="geometry" />
        </mxCell>
        <mxCell id="R6qwXmnEgdx1axwrq7qx-24" value="输入" style="rounded=1;whiteSpace=wrap;html=1;labelBackgroundColor=none;fillColor=#182E3E;strokeColor=#FFFFFF;fontColor=#FFFFFF;fontStyle=1;fontSize=16;" vertex="1" parent="1">
          <mxGeometry x="20" y="360" width="260" height="40" as="geometry" />
        </mxCell>
        <mxCell id="R6qwXmnEgdx1axwrq7qx-25" value="处理" style="rounded=1;whiteSpace=wrap;html=1;labelBackgroundColor=none;fillColor=#182E3E;strokeColor=#FFFFFF;fontColor=#FFFFFF;fontStyle=1;fontSize=16;" vertex="1" parent="1">
          <mxGeometry x="311" y="576" width="576" height="40" as="geometry" />
        </mxCell>
        <mxCell id="R6qwXmnEgdx1axwrq7qx-33" style="edgeStyle=orthogonalEdgeStyle;rounded=0;orthogonalLoop=1;jettySize=auto;html=1;exitX=1;exitY=0.5;exitDx=0;exitDy=0;entryX=0.5;entryY=0;entryDx=0;entryDy=0;labelBackgroundColor=none;strokeColor=#23445D;fontColor=default;fontStyle=1;fontSize=16;" edge="1" parent="1" source="R6qwXmnEgdx1axwrq7qx-32" target="R6qwXmnEgdx1axwrq7qx-14">
          <mxGeometry relative="1" as="geometry" />
        </mxCell>
        <mxCell id="R6qwXmnEgdx1axwrq7qx-34" value="冲突检查" style="edgeLabel;html=1;align=center;verticalAlign=middle;resizable=0;points=[];labelBackgroundColor=none;fontColor=#FFFFFF;fontStyle=1;fontSize=16;" vertex="1" connectable="0" parent="R6qwXmnEgdx1axwrq7qx-33">
          <mxGeometry x="0.0147" y="-1" relative="1" as="geometry">
            <mxPoint x="1" y="30" as="offset" />
          </mxGeometry>
        </mxCell>
        <mxCell id="R6qwXmnEgdx1axwrq7qx-32" value="知识库" style="rounded=0;whiteSpace=wrap;html=1;labelBackgroundColor=none;fillColor=#182E3E;strokeColor=#FFFFFF;fontColor=#FFFFFF;fontStyle=1;fontSize=16;" vertex="1" parent="1">
          <mxGeometry x="390" y="320" width="100" height="40" as="geometry" />
        </mxCell>
        <mxCell id="R6qwXmnEgdx1axwrq7qx-35" value="存储" style="rounded=1;whiteSpace=wrap;html=1;labelBackgroundColor=none;fillColor=#182E3E;strokeColor=#FFFFFF;fontColor=#FFFFFF;fontStyle=1;fontSize=16;" vertex="1" parent="1">
          <mxGeometry x="390" y="263" width="960" height="40" as="geometry" />
        </mxCell>
        <mxCell id="R6qwXmnEgdx1axwrq7qx-36" value="输出" style="rounded=1;whiteSpace=wrap;html=1;labelBackgroundColor=none;fillColor=#182E3E;strokeColor=#FFFFFF;fontColor=#FFFFFF;fontStyle=1;fontSize=16;" vertex="1" parent="1">
          <mxGeometry x="938" y="590" width="141" height="40" as="geometry" />
        </mxCell>
        <mxCell id="R6qwXmnEgdx1axwrq7qx-51" style="edgeStyle=orthogonalEdgeStyle;rounded=0;orthogonalLoop=1;jettySize=auto;html=1;exitX=1;exitY=0.5;exitDx=0;exitDy=0;entryX=0;entryY=0.5;entryDx=0;entryDy=0;labelBackgroundColor=none;strokeColor=#23445D;fontColor=default;fontStyle=1;fontSize=16;" edge="1" parent="1" source="R6qwXmnEgdx1axwrq7qx-38" target="R6qwXmnEgdx1axwrq7qx-48">
          <mxGeometry relative="1" as="geometry" />
        </mxCell>
        <mxCell id="R6qwXmnEgdx1axwrq7qx-38" value="风险评估结果" style="rounded=0;whiteSpace=wrap;html=1;labelBackgroundColor=none;fillColor=#182E3E;strokeColor=#FFFFFF;fontColor=#FFFFFF;fontStyle=1;fontSize=16;" vertex="1" parent="1">
          <mxGeometry x="950" y="390" width="115" height="40" as="geometry" />
        </mxCell>
        <mxCell id="R6qwXmnEgdx1axwrq7qx-52" style="edgeStyle=orthogonalEdgeStyle;rounded=0;orthogonalLoop=1;jettySize=auto;html=1;exitX=1;exitY=0.5;exitDx=0;exitDy=0;entryX=0;entryY=0.5;entryDx=0;entryDy=0;labelBackgroundColor=none;strokeColor=#23445D;fontColor=default;fontStyle=1;fontSize=16;" edge="1" parent="1" source="R6qwXmnEgdx1axwrq7qx-39" target="R6qwXmnEgdx1axwrq7qx-48">
          <mxGeometry relative="1" as="geometry" />
        </mxCell>
        <mxCell id="R6qwXmnEgdx1axwrq7qx-39" value="相似度评分" style="rounded=0;whiteSpace=wrap;html=1;labelBackgroundColor=none;fillColor=#182E3E;strokeColor=#FFFFFF;fontColor=#FFFFFF;fontStyle=1;fontSize=16;" vertex="1" parent="1">
          <mxGeometry x="950" y="440" width="115" height="40" as="geometry" />
        </mxCell>
        <mxCell id="R6qwXmnEgdx1axwrq7qx-53" style="edgeStyle=orthogonalEdgeStyle;rounded=0;orthogonalLoop=1;jettySize=auto;html=1;exitX=1;exitY=0.5;exitDx=0;exitDy=0;entryX=0;entryY=0.5;entryDx=0;entryDy=0;labelBackgroundColor=none;strokeColor=#23445D;fontColor=default;fontStyle=1;fontSize=16;" edge="1" parent="1" source="R6qwXmnEgdx1axwrq7qx-40" target="R6qwXmnEgdx1axwrq7qx-48">
          <mxGeometry relative="1" as="geometry" />
        </mxCell>
        <mxCell id="R6qwXmnEgdx1axwrq7qx-40" value="风险评分" style="rounded=0;whiteSpace=wrap;html=1;labelBackgroundColor=none;fillColor=#182E3E;strokeColor=#FFFFFF;fontColor=#FFFFFF;fontStyle=1;fontSize=16;" vertex="1" parent="1">
          <mxGeometry x="950" y="490" width="115" height="40" as="geometry" />
        </mxCell>
        <mxCell id="R6qwXmnEgdx1axwrq7qx-41" value="检测方法分析" style="rounded=0;whiteSpace=wrap;html=1;labelBackgroundColor=none;fillColor=#182E3E;strokeColor=#FFFFFF;fontColor=#FFFFFF;fontStyle=1;fontSize=16;" vertex="1" parent="1">
          <mxGeometry x="950" y="540" width="115" height="40" as="geometry" />
        </mxCell>
        <mxCell id="R6qwXmnEgdx1axwrq7qx-54" style="edgeStyle=orthogonalEdgeStyle;rounded=0;orthogonalLoop=1;jettySize=auto;html=1;exitX=1;exitY=0.5;exitDx=0;exitDy=0;entryX=0;entryY=0.5;entryDx=0;entryDy=0;labelBackgroundColor=none;strokeColor=#23445D;fontColor=default;fontStyle=1;fontSize=16;" edge="1" parent="1" source="R6qwXmnEgdx1axwrq7qx-48" target="R6qwXmnEgdx1axwrq7qx-49">
          <mxGeometry relative="1" as="geometry" />
        </mxCell>
        <mxCell id="R6qwXmnEgdx1axwrq7qx-48" value="历史记录" style="rounded=0;whiteSpace=wrap;html=1;labelBackgroundColor=none;fillColor=#182E3E;strokeColor=#FFFFFF;fontColor=#FFFFFF;fontStyle=1;fontSize=16;" vertex="1" parent="1">
          <mxGeometry x="1120" y="320" width="100" height="40" as="geometry" />
        </mxCell>
        <mxCell id="R6qwXmnEgdx1axwrq7qx-49" value="统计数据" style="rounded=0;whiteSpace=wrap;html=1;labelBackgroundColor=none;fillColor=#182E3E;strokeColor=#FFFFFF;fontColor=#FFFFFF;fontStyle=1;fontSize=16;" vertex="1" parent="1">
          <mxGeometry x="1250" y="320" width="100" height="40" as="geometry" />
        </mxCell>
        <mxCell id="R6qwXmnEgdx1axwrq7qx-50" style="edgeStyle=orthogonalEdgeStyle;rounded=0;orthogonalLoop=1;jettySize=auto;html=1;exitX=0.5;exitY=1;exitDx=0;exitDy=0;labelBackgroundColor=none;strokeColor=#23445D;fontColor=default;fontStyle=1;fontSize=16;" edge="1" parent="1" source="R6qwXmnEgdx1axwrq7qx-49" target="R6qwXmnEgdx1axwrq7qx-49">
          <mxGeometry relative="1" as="geometry" />
        </mxCell>
      </root>
    </mxGraphModel>
  </diagram>
</mxfile>
